<?xml version="1.0" encoding="utf-8"?>
<!-- Generator: Adobe Illustrator 24.0.1, SVG Export Plug-In . SVG Version: 6.00 Build 0)  -->
<svg version="1.1" id="Capa_1" xmlns="http://www.w3.org/2000/svg" xmlns:xlink="http://www.w3.org/1999/xlink" x="0px" y="0px"
	 viewBox="0 0 137.1 114" style="enable-background:new 0 0 137.1 114;" xml:space="preserve">
<style type="text/css">
	.st0{fill:#FFFFFF;}
</style>
<g>
	<path class="st0" d="M27.7,40.6c-6,0-10.4,2.9-10.4,10c0,5.3,2.9,9,10.1,9c6.1,0,10.2-3.6,10.2-9.2C37.6,44,33.9,40.6,27.7,40.6
		L27.7,40.6z M15.7,90.5c-1.4,1.7-2.8,3.6-2.8,5.8c0,4.3,5.5,5.7,13.2,5.7c6.3,0,14.9-0.4,14.9-6.3c0-3.5-4.1-3.7-9.4-4L15.7,90.5
		L15.7,90.5z M47.9,40.9c2,2.5,4,6,4,11C51.9,64,42.4,71,28.7,71c-3.5,0-6.6-0.4-8.6-1l-3.6,5.8l10.7,0.7
		c18.8,1.2,29.9,1.7,29.9,16.2c0,12.5-11,19.6-29.9,19.6c-19.7,0-27.2-5-27.2-13.6c0-4.9,2.2-7.5,6-11.1c-3.6-1.5-4.8-4.2-4.8-7.2
		c0-2.4,1.2-4.6,3.2-6.6c2-2.1,4.1-4.1,6.7-6.5C5.8,64.7,1.7,59,1.7,51c0-12.5,8.3-21.1,24.9-21.1c4.7,0,7.5,0.4,10,1.1h21.2v9.2
		L47.9,40.9"/>
	<path class="st0" d="M77.1,21.2c-6.2,0-9.8-3.6-9.8-9.8s3.6-9.6,9.8-9.6c6.3,0,9.9,3.4,9.9,9.6S83.4,21.2,77.1,21.2z M63,86.5v-8.6
		l5.6-0.8c1.5-0.2,1.7-0.5,1.7-2.2v-32c0-1.2-0.3-2-1.4-2.3L63,38.5l1.2-8.8h22.5v45.1c0,1.7,0.1,2,1.7,2.2l5.5,0.8v8.6L63,86.5"/>
	<path class="st0" d="M137.1,82.3c-4.7,2.3-11.5,4.3-17.7,4.3c-12.9,0-17.8-5.2-17.8-17.5V40.7c0-0.7,0-1.1-0.9-1.1h-7.6v-9.7
		c9.6-1.1,13.4-5.9,14.6-17.7H118v15.5c0,0.8,0,1.1,0.9,1.1h15.2v10.9h-16.2v26c0,6.4,1.5,8.9,7.4,8.9c3,0,6.2-0.8,8.8-1.7
		L137.1,82.3"/>
</g>
</svg>
